<svg width="375" height="268" viewBox="0 0 375 268" fill="none" xmlns="http://www.w3.org/2000/svg">
<g filter="url(#filter0_d_2_20)">
<path d="M210.661 149.024H174.046C174.046 141.539 174.556 134.948 175.577 129.249C176.682 123.465 178.554 118.277 181.19 113.684C183.827 109.091 187.399 104.839 191.907 100.926C195.905 97.6092 199.349 94.4197 202.241 91.3578C205.133 88.2959 207.344 85.1915 208.875 82.0445C210.406 78.8975 211.172 75.5379 211.172 71.9657C211.172 67.5429 210.534 63.9281 209.258 61.1214C208.067 58.3146 206.238 56.2308 203.772 54.87C201.39 53.424 198.371 52.7011 194.714 52.7011C191.737 52.7011 188.93 53.424 186.293 54.87C183.742 56.3159 181.658 58.5698 180.042 61.6317C178.426 64.6086 177.533 68.5635 177.363 73.4966H134.113C134.368 60.8237 137.175 50.5322 142.534 42.6223C147.977 34.6273 155.207 28.8011 164.222 25.1438C173.323 21.4015 183.487 19.5303 194.714 19.5303C207.132 19.5303 217.806 21.444 226.736 25.2714C235.667 29.0988 242.514 34.7974 247.277 42.3671C252.04 49.8518 254.421 59.0801 254.421 70.052C254.421 77.3666 253.018 83.7455 250.211 89.189C247.489 94.5473 243.79 99.5655 239.112 104.243C234.519 108.836 229.373 113.769 223.674 119.043C218.741 123.38 215.382 127.803 213.596 132.311C211.809 136.734 210.831 142.305 210.661 149.024ZM168.815 187.808C168.815 181.684 171.026 176.581 175.449 172.499C179.872 168.331 185.613 166.247 192.672 166.247C199.732 166.247 205.473 168.331 209.896 172.499C214.319 176.581 216.53 181.684 216.53 187.808C216.53 193.932 214.319 199.078 209.896 203.245C205.473 207.328 199.732 209.369 192.672 209.369C185.613 209.369 179.872 207.328 175.449 203.245C171.026 199.078 168.815 193.932 168.815 187.808Z" fill="#FFB184"/>
</g>
<g filter="url(#filter1_d_2_20)">
<path d="M288.838 186.806L268.272 175.858C270.51 171.654 272.767 168.105 275.044 165.209C277.394 162.291 279.996 159.936 282.85 158.145C285.705 156.354 288.982 155.033 292.684 154.183C295.921 153.515 298.809 152.754 301.349 151.899C303.889 151.043 306.059 149.961 307.86 148.651C309.661 147.341 311.095 145.683 312.163 143.677C313.485 141.193 314.208 138.972 314.33 137.014C314.501 135.081 314.097 133.364 313.118 131.862C312.213 130.338 310.733 129.029 308.679 127.936C307.007 127.046 305.214 126.613 303.301 126.637C301.435 126.686 299.591 127.329 297.768 128.565C295.97 129.754 294.286 131.709 292.716 134.429L268.424 121.498C272.356 114.456 277.009 109.515 282.384 106.674C287.832 103.811 293.634 102.7 299.792 103.341C306.022 103.96 312.29 105.948 318.596 109.305C325.571 113.017 330.994 117.284 334.866 122.103C338.738 126.923 340.879 132.171 341.291 137.847C341.729 143.475 340.308 149.37 337.027 155.533C334.84 159.641 332.145 162.804 328.941 165.022C325.81 167.218 322.232 168.931 318.206 170.16C314.253 171.366 309.888 172.598 305.11 173.857C301.043 174.818 297.834 176.298 295.483 178.296C293.157 180.246 290.942 183.082 288.838 186.806ZM253.738 196.078C255.569 192.639 258.337 190.434 262.042 189.463C265.772 188.444 269.619 188.99 273.584 191.101C277.55 193.212 280.151 196.099 281.389 199.762C282.653 203.377 282.369 206.905 280.538 210.344C278.707 213.784 275.927 216.013 272.197 217.031C268.492 218.002 264.657 217.432 260.692 215.321C256.727 213.211 254.113 210.348 252.849 206.733C251.611 203.069 251.907 199.518 253.738 196.078Z" fill="#CAB7FF"/>
</g>
<g filter="url(#filter2_d_2_20)">
<path d="M88.7718 186.806L109.338 175.858C107.1 171.654 104.842 168.105 102.565 165.209C100.215 162.291 97.6131 159.936 94.759 158.145C91.9049 156.354 88.627 155.033 84.9253 154.183C81.6883 153.515 78.8 152.754 76.2603 151.899C73.7206 151.043 71.5504 149.961 69.7496 148.651C67.9488 147.341 66.5144 145.683 65.4464 143.677C64.1241 141.193 63.4016 138.972 63.2791 137.014C63.1087 135.081 63.5128 133.364 64.4913 131.862C65.3966 130.338 66.8764 129.029 68.9306 127.936C70.6026 127.046 72.3952 126.613 74.3085 126.637C76.1739 126.686 78.0182 127.329 79.8413 128.565C81.639 129.754 83.323 131.709 84.8935 134.429L109.186 121.498C105.253 114.456 100.6 109.515 95.2253 106.674C89.7776 103.811 83.9751 102.7 77.8178 103.341C71.5873 103.96 65.3192 105.948 59.0133 109.305C52.0385 113.017 46.6153 117.284 42.7436 122.103C38.8718 126.923 36.7299 132.171 36.3179 137.847C35.8804 143.475 37.3018 149.37 40.5822 155.533C42.7691 159.641 45.4645 162.804 48.6684 165.022C51.7992 167.218 55.3776 168.931 59.4036 170.16C63.3565 171.366 67.7216 172.598 72.4989 173.857C76.5666 174.818 79.7759 176.298 82.1268 178.296C84.4523 180.246 86.6673 183.082 88.7718 186.806ZM123.871 196.078C122.04 192.639 119.273 190.434 115.568 189.463C111.838 188.444 107.99 188.99 104.025 191.101C100.06 193.212 97.4582 196.099 96.2201 199.762C94.9566 203.377 95.2403 206.905 97.0711 210.344C98.902 213.784 101.683 216.013 105.413 217.031C109.117 218.002 112.952 217.432 116.917 215.321C120.883 213.211 123.497 210.348 124.76 206.733C125.998 203.069 125.702 199.518 123.871 196.078Z" fill="#FFA9D2"/>
</g>
<path d="M182.204 164.8C189.453 164.886 195.404 167.103 199.97 171.508L199.969 171.508C204.528 175.819 206.777 181.191 206.701 187.56C206.626 193.931 204.249 199.288 199.592 203.574L199.585 203.58C194.916 207.789 188.918 209.819 181.673 209.734C174.428 209.648 168.479 207.477 163.911 203.159L163.904 203.152C159.349 198.758 157.1 193.346 157.176 186.975C157.251 180.606 159.624 175.289 164.283 171.087L164.724 170.691C169.328 166.663 175.18 164.717 182.204 164.8ZM185.976 18.1177C198.483 18.2653 209.262 20.3199 218.285 24.3139C227.323 28.3142 234.251 34.2102 239.029 42.0063L239.028 42.0063C243.811 49.7238 246.11 59.1572 245.979 70.2582C245.892 77.6889 244.389 84.1985 241.438 89.7587L241.437 89.7577C238.604 95.1748 234.787 100.224 229.994 104.905C225.337 109.453 220.126 114.334 214.358 119.546L214.349 119.553L214.34 119.56C209.429 123.777 206.124 128.05 204.355 132.365L204.352 132.37C202.569 136.639 201.537 142.082 201.29 148.731L201.257 149.616L162.853 149.162L162.863 148.255C162.952 140.732 163.543 134.091 164.644 128.339L164.646 128.33C165.837 122.472 167.803 117.209 170.55 112.552C173.298 107.892 176.99 103.606 181.612 99.69L181.62 99.6833L181.628 99.6775C185.642 96.4259 189.095 93.301 191.992 90.305C194.868 87.3307 197.058 84.3268 198.577 81.2952C200.082 78.2922 200.856 75.0776 200.896 71.6403C200.948 67.2953 200.36 63.8139 199.187 61.1506L199.182 61.1398L199.178 61.129C198.091 58.4799 196.417 56.5391 194.159 55.2579L194.142 55.2489L194.126 55.2389C191.94 53.8764 189.105 53.1424 185.563 53.1006C182.745 53.0673 180.083 53.7165 177.566 55.0562L177.567 55.0571C175.176 56.3749 173.18 58.4647 171.595 61.3826L171.59 61.3923C170.032 64.184 169.11 67.9753 168.885 72.825L168.844 73.7006L123.796 73.1689L123.825 72.2434C124.234 59.4552 127.192 49.0116 132.771 40.9815L132.772 40.9796C138.413 32.9018 145.855 27.0486 155.078 23.4331C164.346 19.75 174.65 17.984 185.976 18.1177Z" stroke="white" stroke-width="1.81447"/>
<path d="M268.136 187.159C272.181 189.373 274.859 192.395 276.108 196.232C277.381 200.018 277.038 203.709 275.091 207.266C273.144 210.822 270.208 213.12 266.311 214.135L266.305 214.137C262.425 215.105 258.448 214.452 254.405 212.238C250.361 210.023 247.668 207.026 246.393 203.235L246.391 203.228C245.147 199.398 245.502 195.686 247.449 192.13C249.396 188.574 252.322 186.297 256.197 185.33C260.102 184.315 264.092 184.944 268.136 187.159ZM314.11 105.899C321.091 109.721 326.531 114.098 330.405 119.039C334.284 123.987 336.412 129.369 336.766 135.175C337.146 140.941 335.617 146.928 332.224 153.125C329.954 157.271 327.164 160.476 323.846 162.716L323.846 162.718C320.635 164.914 316.979 166.61 312.887 167.806C308.911 168.968 304.525 170.15 299.727 171.354L299.72 171.355L299.713 171.357C295.693 172.257 292.559 173.668 290.275 175.563L290.273 175.566L290.272 175.566C287.994 177.43 285.787 180.179 283.661 183.84L283.378 184.326L261.943 172.59L262.22 172.083C264.519 167.884 266.837 164.331 269.175 161.43L269.179 161.424C271.599 158.49 274.277 156.123 277.212 154.328C280.149 152.533 283.504 151.229 287.271 150.411L287.283 150.408L287.284 150.408C290.51 149.782 293.384 149.06 295.906 148.243C298.411 147.433 300.539 146.4 302.299 145.151C304.042 143.915 305.438 142.341 306.488 140.422C307.816 137.997 308.527 135.866 308.665 134.019L308.666 134.005C308.847 132.192 308.487 130.601 307.602 129.206L307.595 129.195L307.589 129.185C306.769 127.767 305.396 126.507 303.419 125.425C301.844 124.562 300.152 124.132 298.335 124.133C296.601 124.16 294.857 124.737 293.098 125.9L293.092 125.905C291.382 127.007 289.73 128.86 288.154 131.517L287.87 131.996L262.727 118.229L263.02 117.718C267.073 110.657 271.857 105.676 277.391 102.834L277.392 102.834C282.975 99.9829 288.905 98.9202 295.166 99.6471C301.473 100.349 307.789 102.438 314.11 105.899Z" stroke="white" stroke-width="1.15453"/>
<path d="M109.473 187.159C105.429 189.373 102.75 192.395 101.501 196.232C100.228 200.018 100.571 203.709 102.518 207.266C104.465 210.822 107.401 213.12 111.299 214.135L111.304 214.137C115.185 215.105 119.161 214.452 123.205 212.238C127.248 210.023 129.941 207.026 131.216 203.235L131.218 203.228C132.462 199.398 132.107 195.686 130.16 192.13C128.213 188.574 125.288 186.297 121.412 185.33C117.507 184.315 113.518 184.944 109.473 187.159ZM63.499 105.899C56.5185 109.721 51.0788 114.098 47.2046 119.039C43.325 123.987 41.1969 129.369 40.8436 135.175C40.4638 140.941 41.9926 146.928 45.3857 153.125C47.6558 157.271 50.4458 160.476 53.7638 162.716L53.7634 162.718C56.9748 164.914 60.63 166.61 64.7228 167.806C68.6979 168.968 73.0847 170.15 77.8824 171.354L77.8898 171.355L77.8965 171.357C81.9162 172.257 85.0502 173.668 87.3339 175.563L87.3367 175.566L87.3375 175.566C89.6152 177.43 91.8224 180.179 93.9489 183.84L94.231 184.326L115.667 172.59L115.389 172.083C113.09 167.884 110.772 164.331 108.435 161.43L108.431 161.424C106.01 158.49 103.332 156.123 100.397 154.328C97.4605 152.533 94.1051 151.229 90.3385 150.411L90.3266 150.408L90.3257 150.408C87.0993 149.782 84.2258 149.06 81.703 148.243C79.1982 147.433 77.0702 146.4 75.3105 145.151C73.5673 143.915 72.1716 142.341 71.1211 140.422C69.7933 137.997 69.0823 135.866 68.9447 134.019L68.9433 134.005C68.7619 132.192 69.1219 130.601 70.0075 129.206L70.0141 129.195L70.0199 129.185C70.8401 127.767 72.2133 126.507 74.19 125.425C75.7653 124.562 77.4571 124.132 79.2743 124.133C81.0086 124.16 82.752 124.737 84.5117 125.9L84.5176 125.905C86.2275 127.007 87.8793 128.86 89.4554 131.517L89.739 131.996L114.883 118.229L114.59 117.718C110.537 110.657 105.753 105.676 100.218 102.834L100.217 102.834C94.634 99.9829 88.7046 98.9202 82.4432 99.6471C76.1365 100.349 69.8209 102.438 63.499 105.899Z" stroke="white" stroke-width="1.15453"/>
<path d="M386 71.7842C376.167 77.7842 351.7 84.3842 332.5 62.7842C308.5 35.7842 298.5 15.7842 264 10.7842" stroke="white" stroke-linecap="round"/>
<path d="M-27 210.285C-13.6667 204.285 18.4 197.585 40 218.785C67 245.285 83 260.784 116 250.784" stroke="white" stroke-linecap="round"/>
<circle cx="50.5" cy="28.2842" r="12" stroke="white"/>
<circle cx="289.5" cy="233.284" r="3" stroke="white"/>
<defs>
<filter id="filter0_d_2_20" x="95.0527" y="3.8147e-06" width="198.429" height="267.96" filterUnits="userSpaceOnUse" color-interpolation-filters="sRGB">
<feFlood flood-opacity="0" result="BackgroundImageFix"/>
<feColorMatrix in="SourceAlpha" type="matrix" values="0 0 0 0 0 0 0 0 0 0 0 0 0 0 0 0 0 0 127 0" result="hardAlpha"/>
<feOffset dy="19.5303"/>
<feGaussianBlur stdDeviation="19.5303"/>
<feComposite in2="hardAlpha" operator="out"/>
<feColorMatrix type="matrix" values="0 0 0 0 0.210031 0 0 0 0 0.0633751 0 0 0 0 0.65 0 0 0 0.4 0"/>
<feBlend mode="normal" in2="BackgroundImageFix" result="effect1_dropShadow_2_20"/>
<feBlend mode="normal" in="SourceGraphic" in2="effect1_dropShadow_2_20" result="shape"/>
</filter>
<filter id="filter1_d_2_20" x="227.246" y="90.7385" width="138.977" height="164.032" filterUnits="userSpaceOnUse" color-interpolation-filters="sRGB">
<feFlood flood-opacity="0" result="BackgroundImageFix"/>
<feColorMatrix in="SourceAlpha" type="matrix" values="0 0 0 0 0 0 0 0 0 0 0 0 0 0 0 0 0 0 127 0" result="hardAlpha"/>
<feOffset dy="12.4269"/>
<feGaussianBlur stdDeviation="12.4269"/>
<feComposite in2="hardAlpha" operator="out"/>
<feColorMatrix type="matrix" values="0 0 0 0 0.210031 0 0 0 0 0.0633751 0 0 0 0 0.65 0 0 0 0.4 0"/>
<feBlend mode="normal" in2="BackgroundImageFix" result="effect1_dropShadow_2_20"/>
<feBlend mode="normal" in="SourceGraphic" in2="effect1_dropShadow_2_20" result="shape"/>
</filter>
<filter id="filter2_d_2_20" x="11.3869" y="90.7385" width="138.977" height="164.032" filterUnits="userSpaceOnUse" color-interpolation-filters="sRGB">
<feFlood flood-opacity="0" result="BackgroundImageFix"/>
<feColorMatrix in="SourceAlpha" type="matrix" values="0 0 0 0 0 0 0 0 0 0 0 0 0 0 0 0 0 0 127 0" result="hardAlpha"/>
<feOffset dy="12.4269"/>
<feGaussianBlur stdDeviation="12.4269"/>
<feComposite in2="hardAlpha" operator="out"/>
<feColorMatrix type="matrix" values="0 0 0 0 0.210031 0 0 0 0 0.0633751 0 0 0 0 0.65 0 0 0 0.4 0"/>
<feBlend mode="normal" in2="BackgroundImageFix" result="effect1_dropShadow_2_20"/>
<feBlend mode="normal" in="SourceGraphic" in2="effect1_dropShadow_2_20" result="shape"/>
</filter>
</defs>
</svg>
